<?xml version="1.0" encoding="UTF-8" standalone="no"?>
<!-- Created with Inkscape (http://www.inkscape.org/) -->

<svg
        xmlns:dc="http://purl.org/dc/elements/1.1/"
        xmlns:cc="http://creativecommons.org/ns#"
        xmlns:rdf="http://www.w3.org/1999/02/22-rdf-syntax-ns#"
        xmlns="http://www.w3.org/2000/svg"
        xmlns:sodipodi="http://sodipodi.sourceforge.net/DTD/sodipodi-0.dtd"
        xmlns:inkscape="http://www.inkscape.org/namespaces/inkscape"
        width="16"
        height="16"
        viewBox="0 0 4.233333 4.2333335"
        version="1.1"
        id="svg832"
        inkscape:version="0.92.5 (2060ec1f9f, 2020-04-08)"
        sodipodi:docname="moveUp.svg">
    <defs
         id="defs826" />
    <sodipodi:namedview
         id="base"
         pagecolor="#303030"
         bordercolor="#666666"
         borderopacity="1.0"
         inkscape:pageopacity="0"
         inkscape:pageshadow="2"
         inkscape:zoom="31.678384"
         inkscape:cx="6.2678959"
         inkscape:cy="6.7442475"
         inkscape:document-units="px"
         inkscape:current-layer="layer1"
         showgrid="false"
         inkscape:window-width="1600"
         inkscape:window-height="838"
         inkscape:window-x="-8"
         inkscape:window-y="-8"
         inkscape:window-maximized="1"
         units="px"
         showguides="false" />
    <metadata
         id="metadata829">
        <rdf:RDF>
            <cc:Work
                 rdf:about="">
                <dc:format>image/svg+xml</dc:format>
                <dc:type
                     rdf:resource="http://purl.org/dc/dcmitype/StillImage" />
                <dc:title />
            </cc:Work>
        </rdf:RDF>
    </metadata>
    <g
         inkscape:label="Layer 1"
         inkscape:groupmode="layer"
         id="layer1"
         transform="translate(0,-292.76664)">
        <path
             style="opacity:1;fill:#499b54;fill-opacity:1;fill-rule:nonzero;stroke:none;stroke-width:0.99999994;stroke-linecap:square;stroke-linejoin:round;stroke-miterlimit:4;stroke-dasharray:none;stroke-dashoffset:16;stroke-opacity:1;paint-order:normal"
             d="M 8,3 C 7.446,3 7,3.446 7,4 V 7 H 4 C 3.446,7 3,7.446 3,8 3,8.554 3.446,9 4,9 h 3 v 3 c 0,0.554 0.446,1 1,1 0.554,0 1,-0.446 1,-1 V 9 h 3 C 12.554,9 13,8.554 13,8 13,7.446 12.554,7 12,7 H 9 V 4 C 9,3.446 8.554,3 8,3 Z"
             transform="matrix(0.26458333,0,0,0.26458333,0,292.76664)"
             id="rect831"
             inkscape:connector-curvature="0" />
    </g>
</svg>
