<?xml version="1.0" encoding="UTF-8" standalone="no"?>
<!-- Created with Inkscape (http://www.inkscape.org/) -->

<svg
   width="16"
   height="16"
   viewBox="0 0 4.2333326 4.2333331"
   version="1.1"
   id="svg832"
   inkscape:version="1.2.2 (b0a8486541, 2022-12-01)"
   sodipodi:docname="save.svg"
   xmlns:inkscape="http://www.inkscape.org/namespaces/inkscape"
   xmlns:sodipodi="http://sodipodi.sourceforge.net/DTD/sodipodi-0.dtd"
   xmlns="http://www.w3.org/2000/svg"
   xmlns:svg="http://www.w3.org/2000/svg"
   xmlns:rdf="http://www.w3.org/1999/02/22-rdf-syntax-ns#"
   xmlns:cc="http://creativecommons.org/ns#"
   xmlns:dc="http://purl.org/dc/elements/1.1/">
  <defs
     id="defs826">
    <inkscape:path-effect
       effect="bspline"
       id="path-effect2161"
       is_visible="true"
       weight="33.333333"
       steps="2"
       helper_size="0"
       apply_no_weight="true"
       apply_with_weight="true"
       only_selected="false" />
  </defs>
  <sodipodi:namedview
     id="base"
     pagecolor="#303030"
     bordercolor="#666666"
     borderopacity="1.0"
     inkscape:pageopacity="0"
     inkscape:pageshadow="2"
     inkscape:zoom="45.105835"
     inkscape:cx="7.1165959"
     inkscape:cy="8.1364196"
     inkscape:document-units="px"
     inkscape:current-layer="layer1"
     showgrid="false"
     inkscape:window-width="1920"
     inkscape:window-height="1115"
     inkscape:window-x="0"
     inkscape:window-y="0"
     inkscape:window-maximized="1"
     units="px"
     width="32mm"
     inkscape:showpageshadow="0"
     inkscape:pagecheckerboard="0"
     inkscape:deskcolor="#303030" />
  <metadata
     id="metadata829">
    <rdf:RDF>
      <cc:Work
         rdf:about="">
        <dc:format>image/svg+xml</dc:format>
        <dc:type
           rdf:resource="http://purl.org/dc/dcmitype/StillImage" />
        <dc:title />
      </cc:Work>
    </rdf:RDF>
  </metadata>
  <g
     inkscape:label="Layer 1"
     inkscape:groupmode="layer"
     id="layer1"
     transform="translate(0,-292.76663)">
    <path
       style="fill:#adadad;fill-opacity:1;stroke:none;stroke-width:0.313176px;stroke-linecap:butt;stroke-linejoin:miter;stroke-opacity:1"
       d="m 0.89010903,292.76671 c -0.44384161,2e-5 -0.54810684,2e-5 -0.60035552,0.0587 -0.0522486,0.0587 -0.05232,0.17629 -0.0522979,0.82331 2.205e-5,0.64701 8.55e-6,1.82189 0,2.46899 -8.55e-6,0.64709 7.29e-5,0.76446 0.0522979,0.8233 0.052225,0.0588 0.15678207,0.0591 0.73064149,0.0589 0.5738595,-10e-6 1.6178208,-10e-6 2.1922306,0 0.5744097,10e-6 0.6788144,-1.6e-4 0.7309474,-0.0589 0.052133,-0.0588 0.051951,-0.17647 0.051992,-0.67589 4.06e-5,-0.49941 3.13e-4,-1.3823 3.13e-4,-1.8818 -1.56e-5,-0.49948 -1.359e-4,-0.61702 -0.065456,-0.74929 -0.06532,-0.13227 -0.195826,-0.27936 -0.3263266,-0.42633 -0.1305007,-0.14698 -0.260862,-0.29374 -0.3783189,-0.3673 -0.1174567,-0.0735 -0.221609,-0.0737 -0.6654986,-0.0737 -0.4438893,-4e-5 -1.2263273,-3e-5 -1.67016877,0 z m 0.26057197,0.59667 h 1.9316585 c 0.1012133,0 0.1828898,0.0817 0.1828898,0.1829 v 0.84104 c 0,0.1012 -0.081676,0.18259 -0.1828898,0.18259 H 1.150681 c -0.1012133,0 -0.18288966,-0.0814 -0.18288966,-0.18259 v -0.84104 c 0,-0.1012 0.081676,-0.1829 0.18288966,-0.1829 z m 1.4028687,0.16149 v 0.88386 h 0.3238799 v -0.88386 z m -1.78015557,1.48268 H 3.4599387 c 0.1240649,0 0.2238717,0.0998 0.2238717,0.22388 v 1.27716 c 0,0.12407 -0.099807,0.22387 -0.2238717,0.22387 H 0.77339413 c -0.12406498,0 -0.22387174,-0.0998 -0.22387174,-0.22387 v -1.27716 c 0,-0.12407 0.0998068,-0.22388 0.22387174,-0.22388 z"
       id="path2159"
       inkscape:connector-curvature="0"
       sodipodi:nodetypes="ccssccscscscccccssssssssscccccsssssssss" />
  </g>
</svg>
